<?xml version="1.0" encoding="utf-8"?>
<svg viewBox="0 0 60 61" width="60" height="61" fill="none" xmlns="http://www.w3.org/2000/svg">
  <circle cx="30" cy="30.2529" r="29" fill="#F53838" stroke-width="2"/>
  <path d="M 39.563 31.501 L 23.36 31.501 L 28.32 36.951 C 28.552 37.207 28.663 37.536 28.63 37.866 C 28.596 38.197 28.421 38.502 28.142 38.714 C 27.863 38.926 27.503 39.028 27.142 38.998 C 26.781 38.967 26.448 38.807 26.216 38.551 L 19.385 31.051 C 19.339 30.992 19.298 30.929 19.262 30.864 C 19.262 30.801 19.262 30.764 19.166 30.701 C 19.104 30.558 19.072 30.405 19.071 30.251 C 19.072 30.097 19.104 29.945 19.166 29.801 C 19.166 29.739 19.166 29.701 19.262 29.639 C 19.298 29.574 19.339 29.511 19.385 29.451 L 26.216 21.951 C 26.344 21.81 26.505 21.697 26.687 21.619 C 26.869 21.541 27.067 21.501 27.268 21.501 C 27.587 21.501 27.896 21.602 28.142 21.789 C 28.28 21.894 28.395 22.023 28.479 22.168 C 28.562 22.314 28.614 22.473 28.63 22.636 C 28.647 22.8 28.628 22.965 28.575 23.122 C 28.521 23.279 28.435 23.425 28.32 23.551 L 23.36 29.001 L 39.563 29.001 C 39.925 29.001 40.273 29.133 40.529 29.367 C 40.785 29.602 40.929 29.92 40.929 30.251 C 40.929 30.583 40.785 30.901 40.529 31.135 C 40.273 31.37 39.925 31.501 39.563 31.501 Z" fill="#fff" style="" transform="matrix(-1, 0, 0, -1, 60, 60.504147)"/>
</svg>